<svg width="512" height="512" viewBox="0 0 680 680" xmlns="http://www.w3.org/2000/svg">
  <circle cx="340" cy="340" r="320" fill="#0F1117"/>
  <circle cx="340" cy="340" r="300" fill="#1A1E2E" stroke="#2A2D3E" stroke-width="3"/>
  <line x1="340" y1="48" x2="340" y2="80" stroke="#2DD4A0" stroke-width="4" stroke-linecap="round"/>
  <line x1="340" y1="600" x2="340" y2="632" stroke="#2DD4A0" stroke-width="4" stroke-linecap="round"/>
  <line x1="48" y1="340" x2="80" y2="340" stroke="#2DD4A0" stroke-width="4" stroke-linecap="round"/>
  <line x1="600" y1="340" x2="632" y2="340" stroke="#2DD4A0" stroke-width="4" stroke-linecap="round"/>
  <line x1="131" y1="131" x2="152" y2="152" stroke="#2DD4A0" stroke-width="2.5" stroke-linecap="round" opacity="0.5"/>
  <line x1="549" y1="131" x2="528" y2="152" stroke="#2DD4A0" stroke-width="2.5" stroke-linecap="round" opacity="0.5"/>
  <line x1="131" y1="549" x2="152" y2="528" stroke="#2DD4A0" stroke-width="2.5" stroke-linecap="round" opacity="0.5"/>
  <line x1="549" y1="549" x2="528" y2="528" stroke="#2DD4A0" stroke-width="2.5" stroke-linecap="round" opacity="0.5"/>
  <line x1="340" y1="340" x2="340" y2="120" stroke="#2DD4A0" stroke-width="6" stroke-linecap="round" opacity="0.35"/>
  <line x1="340" y1="340" x2="490" y2="400" stroke="#FF8C42" stroke-width="6" stroke-linecap="round" opacity="0.35"/>
  <circle cx="340" cy="340" r="10" fill="#2DD4A0" opacity="0.4"/>
  <rect x="140" y="500" width="400" height="22" rx="5" fill="#2A2D3E"/>
  <rect x="200" y="464" width="280" height="36" rx="6" fill="#6C63FF"/>
  <rect x="212" y="473" width="90" height="4" rx="2" fill="#fff" opacity="0.25"/>
  <rect x="212" y="483" width="130" height="4" rx="2" fill="#fff" opacity="0.15"/>
  <rect x="212" y="432" width="256" height="36" rx="6" fill="#FF8C42"/>
  <rect x="224" y="441" width="80" height="4" rx="2" fill="#fff" opacity="0.25"/>
  <rect x="224" y="451" width="110" height="4" rx="2" fill="#fff" opacity="0.15"/>
  <rect x="224" y="402" width="232" height="34" rx="6" fill="#2DD4A0"/>
  <rect x="236" y="411" width="70" height="4" rx="2" fill="#fff" opacity="0.3"/>
  <rect x="236" y="421" width="100" height="4" rx="2" fill="#fff" opacity="0.2"/>
  <circle cx="340" cy="360" r="62" fill="#F5CBA7"/>
  <path d="M280 348 Q288 294 340 294 Q392 294 400 348" fill="#3B2A1A"/>
  <ellipse cx="281" cy="352" rx="13" ry="18" fill="#3B2A1A"/>
  <ellipse cx="399" cy="352" rx="13" ry="18" fill="#3B2A1A"/>
  <path d="M316 353 Q323 347 330 353" fill="none" stroke="#7B5E3A" stroke-width="3.5" stroke-linecap="round"/>
  <path d="M350 353 Q357 347 364 353" fill="none" stroke="#7B5E3A" stroke-width="3.5" stroke-linecap="round"/>
  <path d="M328 376 Q340 386 352 376" fill="none" stroke="#C8956C" stroke-width="2.5" stroke-linecap="round"/>
  <text x="388" y="325" font-family="monospace" font-size="28" font-weight="700" fill="#6C63FF" opacity="0.95">z</text>
  <text x="413" y="293" font-family="monospace" font-size="36" font-weight="700" fill="#6C63FF" opacity="0.75">z</text>
  <text x="444" y="255" font-family="monospace" font-size="46" font-weight="700" fill="#6C63FF" opacity="0.55">z</text>
  <text x="340" y="558" text-anchor="middle" font-family="monospace" font-size="30" font-weight="700" fill="#E8E9F0" opacity="0.9" letter-spacing="1">StudyGaps</text>
  <circle cx="340" cy="340" r="320" fill="none" stroke="#6C63FF" stroke-width="3" opacity="0.25"/>
</svg>
